# xmcd CD database file
#
# Track frame offsets:
#	150
#	14431
#	30983
#	40683
#	55018
#	63140
#	79865
#	96989
#	116605
#	141937
#	163989
#	180893
#	197112
#	214309
#	225361
#
# Disc length: 3192 seconds
#
# Revision: 1
# Processed by: cddbd v1.5.1PL0 Copyright (c) Steve Scherf et al.
# Submitted via: CDex 1.51
#
DISCID=c00c760f
DTITLE=J.S.バッハ [N.アーノンクール H.タヘツィ] - ヴィオラ・ダ・ガンバソナタ集 他
DYEAR=1969
DGENRE=Classical
TTITLE0=ヴィオラ・ダ・ガンバとチェンバロのためのソナタ 第1番 ト長調 BWV1027 (1)
TTITLE1=ヴィオラ・ダ・ガンバとチェンバロのためのソナタ 第1番 ト長調 BWV1027 (2)
TTITLE2=ヴィオラ・ダ・ガンバとチェンバロのためのソナタ 第1番 ト長調 BWV1027 (3)
TTITLE3=ヴィオラ・ダ・ガンバとチェンバロのためのソナタ 第1番 ト長調 BWV1027 (4)
TTITLE4=ヴィオラ・ダ・ガンバとチェンバロのためのソナタ 第2番 ニ長調 BWV1028 (1)
TTITLE5=ヴィオラ・ダ・ガンバとチェンバロのためのソナタ 第2番 ニ長調 BWV1028 (2)
TTITLE6=ヴィオラ・ダ・ガンバとチェンバロのためのソナタ 第2番 ニ長調 BWV1028 (3)
TTITLE7=ヴィオラ・ダ・ガンバとチェンバロのためのソナタ 第2番 ニ長調 BWV1028 (4)
TTITLE8=ヴィオラ・ダ・ガンバとチェンバロのためのソナタ 第3番 ト短調 BWV1029 (1)
TTITLE9=ヴィオラ・ダ・ガンバとチェンバロのためのソナタ 第3番 ト短調 BWV1029 (2)
TTITLE10=ヴィオラ・ダ・ガンバとチェンバロのためのソナタ 第3番 ト短調 BWV1029 (3)
TTITLE11=2本のフルートと通奏低音のためのソナタ(トリオ・ソナタ) ト長調 BWV1039 (1)
TTITLE12=2本のフルートと通奏低音のためのソナタ(トリオ・ソナタ) ト長調 BWV1039 (2)
TTITLE13=2本のフルートと通奏低音のためのソナタ(トリオ・ソナタ) ト長調 BWV1039 (3)
TTITLE14=2本のフルートと通奏低音のためのソナタ(トリオ・ソナタ) ト長調 BWV1039 (4)
EXTD=YEAR: 1969
EXTT0=
EXTT1=
EXTT2=
EXTT3=
EXTT4=
EXTT5=
EXTT6=
EXTT7=
EXTT8=
EXTT9=
EXTT10=
EXTT11=
EXTT12=
EXTT13=
EXTT14=
PLAYORDER=
